<svg width="67" height="67" viewBox="0 0 67 67" fill="none" xmlns="http://www.w3.org/2000/svg">
<path opacity="0.5" d="M6.54911 31.4065C5.93117 29.5544 5.58337 27.6939 5.58337 25.852C5.58337 9.35068 20.938 1.84986 33.5 15.3507C46.0621 1.84986 61.4167 9.35016 61.4167 25.852C61.4167 27.6938 61.0689 29.5544 60.451 31.4065H52.0258L51.7133 31.4061C50.1897 31.4036 48.8367 31.4014 47.6054 31.9498C46.3741 32.4982 45.4703 33.5056 44.4526 34.6401L44.2437 34.8728L41.3703 38.0654C41.0833 38.3844 40.5851 38.3751 40.312 38.0441L30.3981 26.0272C30.0086 25.5547 29.5918 25.0491 29.1841 24.6739C28.7092 24.2369 28.0073 23.7454 27.026 23.6865C26.0448 23.6275 25.2891 24.0315 24.7653 24.4085C24.3156 24.7322 23.8413 25.1843 23.398 25.6068L19.1278 29.6737C17.8107 30.928 17.5359 31.1417 17.2485 31.2567C16.961 31.3717 16.6146 31.4065 14.7959 31.4065H6.54911Z" fill="#2E7CC2"/>
<path d="M60.4509 31.4065H52.0258L51.7132 31.4061C50.1896 31.4036 48.8366 31.4014 47.6053 31.9498C46.374 32.4982 45.4703 33.5056 44.4526 34.6401L44.2436 34.8728L41.3703 38.0654C41.0833 38.3843 40.585 38.375 40.3119 38.044L30.3981 26.0272C30.0085 25.5546 29.5918 25.0491 29.184 24.6738C28.7092 24.2369 28.0073 23.7454 27.026 23.6864C26.0447 23.6275 25.289 24.0315 24.7653 24.4084C24.3156 24.7322 23.8413 25.1842 23.398 25.6068L19.1277 29.6737C17.8107 30.928 17.5359 31.1417 17.2484 31.2567C16.961 31.3717 16.6146 31.4065 14.7958 31.4065H6.54907C9.44111 40.0744 18.2503 48.5577 25.0182 54.0766C28.7366 57.1088 30.5959 58.625 33.5 58.625C36.4042 58.625 38.2634 57.1089 41.9819 54.0766C48.7497 48.5578 57.5589 40.0745 60.4509 31.4065Z" fill="#C02B8A"/>
</svg>
