<svg width="67" height="67" viewBox="0 0 67 67" fill="none" xmlns="http://www.w3.org/2000/svg">
<path opacity="0.5" fill-rule="evenodd" clip-rule="evenodd" d="M61.4166 33.5C61.4166 48.918 48.9179 61.4167 33.5 61.4167C18.082 61.4167 5.58331 48.918 5.58331 33.5C5.58331 18.0821 18.082 5.58337 33.5 5.58337C48.9179 5.58337 61.4166 18.0821 61.4166 33.5Z" fill="#2E7CC2"/>
<path fill-rule="evenodd" clip-rule="evenodd" d="M25.125 36.9897C23.9687 36.9897 23.0312 37.9271 23.0312 39.0835C23.0312 40.2398 23.9687 41.1772 25.125 41.1772H25.8229V47.4585C25.8229 48.6148 26.7603 49.5522 27.9167 49.5522C29.073 49.5522 30.0104 48.6148 30.0104 47.4585V41.1772H33.5C34.6563 41.1772 35.5938 40.2398 35.5938 39.0835C35.5938 37.9271 34.6563 36.9897 33.5 36.9897H30.0104V35.5939H37.6875C42.6983 35.5939 46.7604 31.5318 46.7604 26.521C46.7604 21.5101 42.6983 17.448 37.6875 17.448L31.1592 17.448C30.7529 17.4475 30.3306 17.447 29.9441 17.5082C27.8537 17.8393 26.2142 19.4788 25.8831 21.5692C25.8218 21.9558 25.8223 22.3781 25.8228 22.7844L25.8229 31.4064H25.125C23.9687 31.4064 23.0312 32.3438 23.0312 33.5001C23.0312 34.6565 23.9687 35.5939 25.125 35.5939H25.8229V36.9897H25.125ZM37.6875 31.4064H30.0104V22.8918C30.0104 22.6211 30.0106 22.46 30.0139 22.3385C30.016 22.2614 30.0189 22.2279 30.0197 22.2198C30.0684 21.9248 30.2997 21.6935 30.5947 21.6449C30.6028 21.6441 30.6363 21.6412 30.7134 21.6391C30.8348 21.6357 30.996 21.6355 31.2667 21.6355H37.6875C40.3856 21.6355 42.5729 23.8228 42.5729 26.521C42.5729 29.2191 40.3856 31.4064 37.6875 31.4064Z" fill="#C02B8A"/>
</svg>
