<svg width="67" height="67" viewBox="0 0 67 67" fill="none" xmlns="http://www.w3.org/2000/svg">
<path opacity="0.5" d="M33.5 61.4167C20.34 61.4167 13.76 61.4167 9.67168 57.3284C5.58337 53.2401 5.58337 46.6601 5.58337 33.5C5.58337 20.34 5.58337 13.76 9.67168 9.67168C13.76 5.58337 20.34 5.58337 33.5 5.58337C46.6601 5.58337 53.2401 5.58337 57.3284 9.67168C61.4167 13.76 61.4167 20.34 61.4167 33.5C61.4167 46.6601 61.4167 53.2401 57.3284 57.3284C53.2401 61.4167 46.6601 61.4167 33.5 61.4167Z" fill="#2E7CC2"/>
<path d="M19.5416 39.7812C20.698 39.7812 21.6354 40.7187 21.6354 41.875V50.25C21.6354 51.4063 20.698 52.3438 19.5416 52.3438C18.3853 52.3438 17.4479 51.4063 17.4479 50.25V41.875C17.4479 40.7187 18.3853 39.7812 19.5416 39.7812Z" fill="#C02B8A"/>
<path d="M33.5 31.4062C34.6563 31.4062 35.5937 32.3437 35.5937 33.5V50.25C35.5937 51.4063 34.6563 52.3438 33.5 52.3438C32.3436 52.3438 31.4062 51.4063 31.4062 50.25V33.5C31.4062 32.3437 32.3436 31.4062 33.5 31.4062Z" fill="#C02B8A"/>
<path d="M47.4583 23.0312C48.6146 23.0312 49.552 23.9687 49.552 25.125V50.25C49.552 51.4063 48.6146 52.3438 47.4583 52.3438C46.3019 52.3438 45.3645 51.4063 45.3645 50.25V25.125C45.3645 23.9687 46.3019 23.0312 47.4583 23.0312Z" fill="#C02B8A"/>
</svg>
