<svg width="67" height="67" viewBox="0 0 67 67" fill="none" xmlns="http://www.w3.org/2000/svg">
<path opacity="0.5" d="M26.7787 8.93421C26.099 9.51352 25.759 9.8032 25.396 10.0465C24.5638 10.6043 23.6292 10.9914 22.6463 11.1855C22.2176 11.2701 21.7723 11.3057 20.8819 11.3767L20.8819 11.3767C18.6447 11.5552 17.5261 11.6445 16.5929 11.9741C14.4344 12.7365 12.7365 14.4344 11.9741 16.5929C11.6445 17.5261 11.5552 18.6447 11.3767 20.8819L11.3767 20.8819C11.3057 21.7723 11.2701 22.2176 11.1855 22.6463C10.9914 23.6292 10.6043 24.5638 10.0465 25.396C9.8032 25.759 9.51352 26.099 8.93417 26.7788L8.93413 26.7788C7.47845 28.487 6.75058 29.3411 6.32377 30.2341C5.33658 32.2995 5.33658 34.7006 6.32377 36.766C6.75058 37.659 7.47843 38.5131 8.93413 40.2212L8.93429 40.2214C9.51349 40.9011 9.80323 41.2411 10.0465 41.6041C10.6043 42.4363 10.9914 43.3709 11.1855 44.3538C11.2701 44.7825 11.3057 45.2277 11.3767 46.1181L11.3767 46.1182C11.5552 48.3554 11.6445 49.474 11.9741 50.4072C12.7365 52.5657 14.4344 54.2635 16.5929 55.0259C17.5261 55.3556 18.6447 55.4448 20.8818 55.6234L20.8819 55.6234C21.7723 55.6944 22.2176 55.73 22.6463 55.8146C23.6292 56.0087 24.5638 56.3958 25.396 56.9536C25.759 57.1969 26.099 57.4866 26.7788 58.066C28.487 59.5217 29.3411 60.2495 30.2341 60.6763C32.2995 61.6635 34.7006 61.6635 36.766 60.6763C37.659 60.2495 38.5131 59.5217 40.2212 58.066L40.2213 58.0659C40.9011 57.4866 41.2411 57.1969 41.6041 56.9536C42.4363 56.3958 43.3709 56.0087 44.3538 55.8146C44.7825 55.73 45.2277 55.6944 46.1181 55.6234L46.1183 55.6234C48.3554 55.4448 49.474 55.3556 50.4072 55.0259C52.5657 54.2635 54.2635 52.5657 55.0259 50.4072C55.3556 49.474 55.4448 48.3554 55.6234 46.1183L55.6234 46.1181C55.6944 45.2277 55.73 44.7825 55.8146 44.3538C56.0087 43.3709 56.3958 42.4363 56.9536 41.6041C57.1969 41.241 57.4866 40.9011 58.066 40.2212C59.5217 38.5131 60.2495 37.659 60.6763 36.766C61.6635 34.7006 61.6635 32.2995 60.6763 30.2341C60.2495 29.3411 59.5217 28.487 58.066 26.7788C57.4866 26.099 57.1969 25.759 56.9536 25.396C56.3958 24.5638 56.0087 23.6292 55.8146 22.6463C55.73 22.2176 55.6944 21.7723 55.6234 20.8819L55.6234 20.8818C55.4448 18.6447 55.3556 17.5261 55.0259 16.5929C54.2635 14.4344 52.5657 12.7365 50.4072 11.9741C49.474 11.6445 48.3554 11.5552 46.1182 11.3767L46.1181 11.3767C45.2277 11.3057 44.7825 11.2701 44.3538 11.1855C43.3709 10.9914 42.4363 10.6043 41.6041 10.0465C41.241 9.80319 40.9011 9.5135 40.2212 8.93413C38.5131 7.47843 37.659 6.75058 36.766 6.32377C34.7006 5.33658 32.2995 5.33658 30.2341 6.32377C29.3411 6.75058 28.487 7.47845 26.7788 8.93413L26.7787 8.93421Z" fill="#2E7CC2"/>
<path d="M45.7095 27.5341C46.5968 26.6468 46.5968 25.2083 45.7095 24.321C44.8222 23.4337 43.3837 23.4337 42.4964 24.321L28.9561 37.8613L24.504 33.4091C23.6167 32.5218 22.1781 32.5218 21.2908 33.4091C20.4035 34.2964 20.4035 35.7349 21.2908 36.6222L27.3496 42.681C28.2368 43.5682 29.6754 43.5682 30.5627 42.681L45.7095 27.5341Z" fill="#C02B8A"/>
</svg>
