<svg width="67" height="67" viewBox="0 0 67 67" fill="none" xmlns="http://www.w3.org/2000/svg">
<path opacity="0.5" d="M5.58337 22.3334V33.5C5.58337 41.3961 5.58337 45.3441 8.03635 47.7971C9.36616 49.1269 11.1354 49.7358 13.7348 50.0146C13.9413 49.7356 14.1369 49.516 14.2764 49.3626C14.6007 49.0059 15.0119 48.6005 15.4106 48.2075L19.5783 44.0977L21.1175 42.5385C22.129 36.6131 27.2875 32.1042 33.5002 32.1042C39.7129 32.1042 44.8714 36.6131 45.8829 42.5385L47.4221 44.0977L51.5901 48.2077C51.9887 48.6007 52.3998 49.006 52.724 49.3626C52.8635 49.516 53.0591 49.7356 53.2656 50.0145C55.8649 49.7357 57.634 49.1268 58.9637 47.7971C61.4167 45.3441 61.4167 41.3961 61.4167 33.5V22.3334C61.4167 14.4373 61.4167 10.4893 58.9637 8.03635C56.5107 5.58337 52.5627 5.58337 44.6667 5.58337H22.3334C14.4373 5.58337 10.4893 5.58337 8.03635 8.03636C5.58337 10.4893 5.58337 14.4373 5.58337 22.3334Z" fill="#2E7CC2"/>
<path d="M19.5416 24.4271C18.3853 24.4271 17.4479 25.3645 17.4479 26.5208C17.4479 27.6772 18.3853 28.6146 19.5416 28.6146H47.4583C48.6146 28.6146 49.552 27.6772 49.552 26.5208C49.552 25.3645 48.6146 24.4271 47.4583 24.4271H19.5416Z" fill="#C02B8A"/>
<path d="M23.0312 16.75C23.0312 15.5937 23.9686 14.6562 25.125 14.6562H41.875C43.0313 14.6562 43.9687 15.5937 43.9687 16.75C43.9687 17.9063 43.0313 18.8438 41.875 18.8438H25.125C23.9686 18.8438 23.0312 17.9063 23.0312 16.75Z" fill="#C02B8A"/>
<path d="M25.1281 44.4362C25.126 44.5128 25.125 44.5897 25.125 44.6667C25.125 49.2921 28.8746 53.0417 33.5 53.0417C38.1254 53.0417 41.875 49.2921 41.875 44.6667C41.875 44.5897 41.874 44.5128 41.8719 44.4362C41.7498 39.9174 38.0483 36.2917 33.5 36.2917C29.1637 36.2917 25.5971 39.5873 25.1682 43.8105C25.1473 44.0169 25.1338 44.2256 25.1281 44.4362Z" fill="#C02B8A"/>
<path d="M21.428 48.1545L18.4117 51.1289C17.507 52.021 17.0547 52.4671 16.8981 52.8449C16.5414 53.7057 16.8467 54.6605 17.6233 55.1133C17.9641 55.312 18.5789 55.374 19.8084 55.4978C20.5025 55.5677 20.8496 55.6027 21.1404 55.7088C21.7912 55.9464 22.2975 56.4456 22.5384 57.0874C22.646 57.3741 22.6815 57.7164 22.7524 58.4009C22.878 59.6133 22.9408 60.2195 23.1423 60.5556C23.6015 61.3214 24.5698 61.6224 25.4427 61.2707C25.8258 61.1163 26.2781 60.6703 27.1828 59.7782L30.199 56.7911C25.9766 55.6442 22.6381 52.3505 21.428 48.1545Z" fill="#C02B8A"/>
<path d="M36.801 56.7911L39.8172 59.7782C40.7219 60.6703 41.1742 61.1163 41.5573 61.2707C42.4302 61.6224 43.3985 61.3214 43.8577 60.5556C44.0592 60.2195 44.122 59.6133 44.2476 58.4009C44.3185 57.7164 44.354 57.3741 44.4616 57.0874C44.7026 56.4456 45.2088 55.9464 45.8596 55.7088C46.1504 55.6027 46.4975 55.5677 47.1916 55.4978C48.4211 55.374 49.0359 55.312 49.3767 55.1133C50.1533 54.6605 50.4586 53.7057 50.1019 52.8449C49.9453 52.4671 49.493 52.021 48.5883 51.1289L45.572 48.1545C44.3619 52.3505 41.0234 55.6442 36.801 56.7911Z" fill="#C02B8A"/>
</svg>
