<svg width="67" height="67" viewBox="0 0 67 67" fill="none" xmlns="http://www.w3.org/2000/svg">
<path opacity="0.5" d="M8.375 29.0799C8.375 20.1533 8.375 15.69 9.4289 14.1884C10.4828 12.6869 14.6795 11.2503 23.0729 8.37725L24.672 7.82987C29.0472 6.33221 31.2349 5.58337 33.5 5.58337C35.7651 5.58337 37.9528 6.33221 42.328 7.82988L43.9271 8.37725C52.3205 11.2503 56.5172 12.6869 57.5711 14.1884C58.625 15.69 58.625 20.1533 58.625 29.0799V33.4759C58.625 49.2155 46.7912 56.8537 39.3665 60.097C37.3525 60.9768 36.3454 61.4167 33.5 61.4167C30.6546 61.4167 29.6475 60.9768 27.6335 60.097C20.2088 56.8537 8.375 49.2155 8.375 33.4759V29.0799Z" fill="#2E7CC2"/>
<path d="M39.0833 25.125C39.0833 28.2085 36.5836 30.7083 33.5 30.7083C30.4164 30.7083 27.9166 28.2085 27.9166 25.125C27.9166 22.0414 30.4164 19.5416 33.5 19.5416C36.5836 19.5416 39.0833 22.0414 39.0833 25.125Z" fill="#C02B8A"/>
<path d="M33.5 47.4583C44.6666 47.4583 44.6666 44.9585 44.6666 41.875C44.6666 38.7914 39.6672 36.2916 33.5 36.2916C27.3328 36.2916 22.3333 38.7914 22.3333 41.875C22.3333 44.9585 22.3333 47.4583 33.5 47.4583Z" fill="#C02B8A"/>
</svg>
