<svg width="996" height="859" viewBox="0 0 996 859" fill="none" xmlns="http://www.w3.org/2000/svg">
<g opacity="0.1" filter="url(#filter0_f_141_682)">
<path d="M975 301.485C975 479.454 783.273 667.68 642.925 781.625C579.389 833.208 547.621 859 498 859C448.378 859 416.61 833.209 353.074 781.626C212.726 667.682 21 479.456 21 301.484C21 4.17481 283.358 -106.826 498 122.843C712.642 -106.826 975 4.17481 975 301.485Z" fill="#2E7CC2"/>
</g>
<path opacity="0.1" d="M975 301.485C975 479.454 783.273 667.68 642.925 781.625C579.389 833.208 547.621 859 498 859C448.378 859 416.61 833.209 353.074 781.626C212.726 667.682 21 479.456 21 301.484C21 4.17481 283.358 -106.826 498 122.843C712.642 -106.826 975 4.17481 975 301.485Z" fill="#2E7CC2"/>
<path opacity="0.2" d="M888 309.383C888 454.824 731.242 608.648 616.492 701.767C564.545 743.922 538.571 765 498 765C457.429 765 431.455 743.923 379.507 701.768C264.757 608.649 108 454.826 108 309.381C108 66.4118 322.506 -24.3016 498 163.391C673.494 -24.3016 888 66.4118 888 309.383Z" fill="#2E7CC2"/>
<path opacity="0.15" d="M933 304.811C933 467.034 758.155 638.607 630.165 742.471C572.223 789.49 543.252 813 498 813C452.747 813 423.776 789.491 365.835 742.472C237.845 638.609 63 467.036 63 304.81C63 33.8054 302.257 -67.3748 498 141.974C693.743 -67.3748 933 33.8054 933 304.811Z" fill="#2E7CC2"/>
<path opacity="0.3" d="M843 321.603C843 450.055 704.531 585.911 603.168 668.153C557.281 705.384 534.338 724 498.5 724C462.662 724 439.718 705.385 393.831 668.154C292.469 585.913 154 450.057 154 321.602C154 107.013 343.48 26.8961 498.5 192.664C653.519 26.8961 843 107.013 843 321.603Z" fill="#2E7CC2"/>
<path opacity="0.4" d="M808 330.194C808 446.008 683.398 568.497 592.186 642.648C550.895 676.216 530.249 693 498 693C465.751 693 445.105 676.216 403.813 642.648C312.602 568.499 188 446.009 188 330.192C188 136.717 358.505 64.4821 498 213.941C637.495 64.4821 808 136.717 808 330.194Z" fill="#2E7CC2"/>
<path opacity="0.5" d="M774 340.082C774 442.844 663.064 551.529 581.856 617.322C545.093 647.107 526.712 662 498 662C469.288 662 450.906 647.108 414.143 617.323C332.936 551.53 222 442.846 222 340.081C222 168.411 373.804 104.317 498 236.931C622.196 104.317 774 168.411 774 340.082Z" fill="#2E7CC2"/>
<path opacity="0.5" d="M740 348.673C740 438.797 642.931 534.115 571.874 591.817C539.707 617.939 523.623 631 498.5 631C473.377 631 457.293 617.939 425.126 591.818C354.069 534.116 257 438.798 257 348.672C257 198.114 389.829 141.903 498.5 258.208C607.171 141.903 740 198.114 740 348.673Z" fill="#2E7CC2"/>
<path opacity="0.6" d="M705 358.562C705 435.633 621.798 517.147 560.892 566.492C533.32 588.831 519.534 600 498 600C476.466 600 462.68 588.831 435.108 566.492C374.202 517.148 291 435.634 291 358.561C291 229.808 404.853 181.738 498 281.198C591.147 181.738 705 229.808 705 358.562Z" fill="#2E7CC2"/>
<path opacity="0.5" d="M671 367.152C671 431.586 601.665 499.733 550.91 540.986C527.933 559.662 516.445 569 498.5 569C480.555 569 469.067 559.662 446.09 540.987C395.335 499.734 326 431.587 326 367.152C326 259.511 420.878 219.324 498.5 302.475C576.122 219.324 671 259.511 671 367.152Z" fill="#2E7CC2"/>
<path opacity="0.8" d="M636 362.041C636 413.422 580.532 467.765 539.928 500.661C521.547 515.554 512.356 523 498 523C483.644 523 474.453 515.554 456.072 500.662C415.468 467.765 360 413.423 360 362.041C360 276.205 435.902 244.158 498 310.466C560.098 244.158 636 276.205 636 362.041Z" fill="#2E7CC2"/>
<path opacity="0.5" d="M602 380.281C602 418.816 560.399 459.573 529.946 484.246C516.16 495.415 509.267 501 498.5 501C487.733 501 480.84 495.415 467.054 484.246C436.601 459.574 395 418.817 395 380.28C395 315.904 451.927 291.869 498.5 341.599C545.073 291.869 602 315.904 602 380.281Z" fill="#2E7CC2"/>
<path opacity="0.9" d="M567 380.521C567 406.211 539.266 433.382 518.964 449.831C509.773 457.277 505.178 461 498 461C490.822 461 486.227 457.277 477.036 449.831C456.734 433.383 429 406.211 429 380.52C429 337.603 466.951 321.579 498 354.733C529.049 321.579 567 337.603 567 380.521Z" fill="#2E7CC2"/>
<path d="M530 405.707C530 417.931 517.138 430.859 507.722 438.686C503.46 442.229 501.329 444 498 444C494.671 444 492.54 442.229 488.278 438.686C478.862 430.859 466 417.931 466 405.707C466 385.287 483.601 377.663 498 393.437C512.399 377.663 530 385.287 530 405.707Z" fill="#2E7CC2"/>
<path fill-rule="evenodd" clip-rule="evenodd" d="M788 128C797.037 128 804.364 135.143 804.364 143.955L804.364 170.546H831.636C840.674 170.546 848 177.689 848 186.5C848 195.312 840.674 202.455 831.636 202.455H804.364V229.045C804.364 237.857 797.037 245 788 245C778.963 245 771.636 237.857 771.636 229.045L771.636 202.455L744.364 202.455C735.326 202.455 728 195.312 728 186.5C728 177.689 735.326 170.546 744.364 170.546H771.636L771.636 143.955C771.636 135.143 778.963 128 788 128Z" fill="#C02B8A" fill-opacity="0.8"/>
<defs>
<filter id="filter0_f_141_682" x="0" y="-21" width="996" height="901" filterUnits="userSpaceOnUse" color-interpolation-filters="sRGB">
<feFlood flood-opacity="0" result="BackgroundImageFix"/>
<feBlend mode="normal" in="SourceGraphic" in2="BackgroundImageFix" result="shape"/>
<feGaussianBlur stdDeviation="10.5" result="effect1_foregroundBlur_141_682"/>
</filter>
</defs>
</svg>
