<svg width="104" height="59" viewBox="0 0 104 59" fill="none" xmlns="http://www.w3.org/2000/svg">
<path d="M102.51 32.6211C102.509 32.0409 102.463 31.9955 101.897 31.9937C100.367 31.9912 98.8366 31.9655 97.3074 31.9997C95.492 32.0409 93.7332 31.8 92.0321 31.1427C89.0543 29.9908 87.0084 27.8747 85.7546 24.9444C85.3505 24.0008 85.1844 23.0006 85.0404 21.9764C84.8447 20.5854 84.8405 19.1978 84.9769 17.8291C85.1217 16.3824 85.2573 14.9485 85.2107 13.4923C85.1421 11.3205 84.5177 9.3133 83.3749 7.50833C80.6606 3.21959 76.634 1.20379 71.706 1.00323C68.6994 0.880673 65.6834 0.984377 62.6726 0.963807C62.005 0.959522 61.4095 1.15236 60.8436 1.46176C59.616 2.1337 58.7053 3.18103 57.7387 4.1675C54.5101 7.46205 51.2638 10.7395 48.0293 14.028C47.77 14.2911 47.5464 14.5911 47.3066 14.8739C47.2532 14.8371 47.199 14.8002 47.1457 14.7642C47.1457 14.3588 47.1457 13.9543 47.1457 13.5489C47.1448 10.3581 47.1948 7.16636 47.127 3.97724C47.0779 1.68631 45.392 0.357865 43.0208 1.20121C42.0957 1.53033 41.3722 2.14741 40.6962 2.82963C38.8375 4.70488 36.9813 6.58185 35.1243 8.45967L34.9354 8.65079C32.6624 10.9477 5.55554 38.5177 5.55554 38.5177C5.55554 38.5177 11.562 38.5314 14.3254 38.546C14.7177 38.5477 14.9973 38.42 15.2709 38.1432C23.5316 29.8031 31.7992 21.4682 40.0692 13.1367C40.226 12.9798 40.6614 13.1675 40.6614 13.3972C40.6657 21.5453 40.6648 29.6942 40.6657 37.8423C40.6657 38.5297 40.6724 38.5374 41.3375 38.5374C43.0081 38.5391 44.6787 38.5383 46.3493 38.5383C47.1448 38.5383 47.1448 38.5374 47.1448 37.7326C47.1457 33.5313 47.1465 29.3291 47.144 25.1278C47.144 24.791 47.1668 24.4944 47.4362 24.2228C51.1731 20.4594 54.899 16.6832 58.6316 12.9147C58.7205 12.8247 59.0111 12.9395 59.0204 13.0604C59.0289 13.1701 59.0221 13.2815 59.0221 13.3921C59.0221 21.4793 59.0221 29.5665 59.0221 37.6538C59.0221 37.8115 59.0289 37.97 59.023 38.1277C59.0128 38.4011 59.1297 38.5365 59.4084 38.5365C61.3137 38.534 63.2182 38.5331 65.1226 38.5374C65.431 38.5383 65.5132 38.0986 65.5132 38.0986C65.5132 38.0986 65.5233 31.2969 65.5233 28.6589C65.5242 28.0161 65.5259 28.0204 66.1358 28.0101C68.5825 27.9698 71.0342 28.1335 73.4723 27.753C75.2158 27.4813 76.8686 26.9602 78.4367 26.1469C78.7256 25.996 78.7985 25.7843 78.7231 25.4861C78.6299 25.1192 78.5265 24.7541 78.4562 24.383C78.0818 22.4084 77.8751 20.42 78.0199 18.405C78.0242 18.3416 77.9962 18.2825 77.9022 18.2533C77.5921 18.4804 77.4133 18.8438 77.1456 19.1258C75.7902 20.5537 74.0908 21.2136 72.1812 21.3696C70.1082 21.5384 68.0301 21.403 65.9554 21.445C65.5403 21.4527 65.5216 21.1999 65.5216 20.8862C65.5242 16.6215 65.5276 12.3567 65.5165 8.09199C65.5148 7.68317 65.6343 7.54004 66.0494 7.54347C67.8598 7.55804 69.6711 7.54004 71.4823 7.54261C73.1724 7.54519 74.7431 7.93944 76.1722 8.90792C78.1419 10.2424 79.3923 13.1984 78.9094 15.5433C78.2969 18.5156 78.441 21.4802 79.0569 24.4233C79.5482 26.7742 80.453 28.9615 81.8339 30.937C85.1861 35.7348 89.8015 38.2177 95.5555 38.5297C97.6717 38.6445 99.7981 38.546 101.919 38.5683C102.364 38.5734 102.523 38.432 102.518 37.9752C102.5 36.1908 102.513 34.4055 102.51 32.6211Z" fill="#2E7CC2"/>
<path d="M86.0726 13.821C86.0776 14.0705 86.1084 14.3191 86.1275 14.5721C86.1907 14.5572 86.2322 14.5607 86.2464 14.5423C86.2921 14.4793 86.3311 14.411 86.3669 14.341C87.1582 12.7706 88.1765 11.3962 89.5239 10.3081C91.1315 9.0108 92.9144 8.17043 94.9393 7.87543C95.7597 7.7555 96.5801 7.65833 97.4005 7.65045C98.4495 7.63995 101.38 7.83603 101.786 7.78264C102.352 7.70735 102.518 7.47888 102.518 6.86786C102.52 5.07858 102.506 3.28843 102.51 1.49914C102.511 1.11835 102.389 0.93715 102.004 0.942402C98.7812 0.990548 95.5494 0.761198 92.3558 1.48689C90.7732 1.84755 89.2662 2.39729 87.829 3.15887C86.4833 3.87318 85.2821 4.81422 84.1783 5.89881C83.682 6.3864 83.6679 6.36802 84.0203 6.95803C85.2738 9.05632 86.0253 11.3218 86.0726 13.821Z" fill="#C02B8A"/>
<path d="M21.5996 48.8589C21.7316 48.9272 21.839 49.0168 21.9267 49.1321C22.0153 49.2491 22.0843 49.3901 22.1311 49.5506C22.1618 49.657 22.1831 49.7705 22.1941 49.8867H19.9532C19.977 49.7758 20.0077 49.6685 20.0469 49.5657C20.1082 49.4034 20.1917 49.2606 20.2947 49.1409C20.3969 49.0221 20.5153 48.9308 20.6567 48.8607C20.9293 48.7277 21.3415 48.7268 21.5996 48.8589ZM23.4113 47.9279C23.1285 47.6157 22.7895 47.3843 22.4028 47.2389C21.6626 46.9587 20.724 46.9347 19.8969 47.2735C19.4898 47.4402 19.1244 47.6938 18.8093 48.0272C18.4941 48.3597 18.2411 48.7836 18.0554 49.2855C17.8715 49.7847 17.7778 50.3735 17.7778 51.0341C17.7778 51.708 17.8783 52.2915 18.0759 52.7686C18.2752 53.2492 18.5495 53.6473 18.891 53.9515C19.2317 54.2556 19.6346 54.4773 20.0886 54.6121C20.5341 54.7451 21.0102 54.8125 21.5051 54.8125C21.9889 54.8125 22.4633 54.7673 22.9156 54.6786C23.3764 54.5873 23.7111 54.4933 23.9394 54.3895C24.0075 54.3585 24.0527 54.2884 24.0527 54.2104V52.8368C24.0527 52.7739 24.0229 52.7145 23.9735 52.6772C23.9249 52.6409 23.861 52.6311 23.804 52.6515C23.4547 52.7739 23.1064 52.8697 22.7691 52.9353C22.1328 53.0585 21.5196 53.0701 21.0272 52.9406C20.8007 52.8821 20.6005 52.7872 20.4319 52.6595C20.2683 52.5362 20.1337 52.3713 20.0307 52.1682C19.9532 52.0131 19.8978 51.8304 19.8663 51.6229H24.0876C24.1873 51.6229 24.2699 51.5422 24.275 51.4385C24.2844 51.2664 24.292 51.0589 24.2963 50.8098C24.2963 50.166 24.2196 49.5985 24.0672 49.1232C23.913 48.6408 23.6915 48.2382 23.4113 47.9279Z" fill="#C02B8A"/>
<path d="M28.9081 51.6783C29.0429 51.3532 29.1585 50.9906 29.2512 50.6027C29.3318 50.2628 29.3992 49.881 29.4499 49.4652H30.1108V53.1593H28.0731C28.2044 52.9727 28.3287 52.7853 28.4425 52.5979C28.6167 52.3129 28.7733 52.0035 28.9081 51.6783ZM33.0658 53.1593H32.1975V47.8657C32.1975 47.7593 32.1108 47.6731 32.0041 47.6731H27.8726C27.7685 47.6731 27.6836 47.755 27.6792 47.8578C27.6512 48.5395 27.5847 49.1523 27.4823 49.6787C27.379 50.2026 27.2407 50.6812 27.0691 51.0996C26.8993 51.5171 26.6927 51.8997 26.4555 52.2379C26.2306 52.5561 25.9794 52.8664 25.708 53.1593H25.3045C25.1977 53.1593 25.1111 53.2456 25.1111 53.3519V57.216C25.1111 57.3223 25.1977 57.4086 25.3045 57.4086H26.9545C27.0612 57.4086 27.147 57.3223 27.147 57.216V54.9802H31.2224V57.216C31.2224 57.3223 31.3091 57.4086 31.4159 57.4086H33.0658C33.1726 57.4086 33.2592 57.3223 33.2592 57.216V53.3519C33.2592 53.2456 33.1726 53.1593 33.0658 53.1593Z" fill="#C02B8A"/>
<path d="M36.2144 46.8873H37.0097C37.3549 46.8873 37.6529 46.9001 37.895 46.9249C38.1248 46.9488 38.3189 46.9863 38.47 47.0375C38.7471 47.134 38.9402 47.2654 39.0451 47.4285C39.1552 47.6 39.2094 47.8015 39.2094 48.0422C39.2094 48.2385 39.171 48.4211 39.0967 48.5842C39.025 48.7404 38.9053 48.8769 38.7401 48.9887C38.5653 49.1074 38.3267 49.203 38.0322 49.2713C37.7307 49.3421 37.3453 49.378 36.8882 49.378C36.7239 49.378 36.5657 49.3745 36.4145 49.3686C36.3411 49.3643 36.2747 49.3609 36.2144 49.3558V46.8873ZM39.2278 45.3219C38.949 45.2408 38.6265 45.1785 38.2682 45.1375C37.916 45.0974 37.5 45.0769 37.0315 45.0769H34.2672C34.1606 45.0769 34.0741 45.1606 34.0741 45.2647V54.6247C34.0741 54.7289 34.1606 54.8125 34.2672 54.8125H36.0212C36.1279 54.8125 36.2144 54.7289 36.2144 54.6247V51.1713C36.2887 51.1764 36.3664 51.1798 36.446 51.1824C36.6007 51.1866 36.7571 51.1892 36.917 51.1892C37.6197 51.1892 38.2507 51.1183 38.7917 50.9801C39.3414 50.8401 39.8151 50.6352 40.2005 50.3715C40.592 50.1035 40.8944 49.7714 41.0989 49.3839C41.3034 48.9973 41.4074 48.5577 41.4074 48.0771C41.4074 47.3738 41.2143 46.7832 40.8341 46.3223C40.4574 45.8647 39.9173 45.5285 39.2278 45.3219Z" fill="#2E7CC2"/>
<path d="M48.5588 47.6731H46.8234C46.7492 47.6731 46.6824 47.7191 46.6544 47.7906L45.6409 50.3661C45.3986 50.9946 45.2107 51.4946 45.078 51.8634C44.9239 51.4435 44.7138 50.8993 44.4518 50.2383L43.4728 47.7889C43.4448 47.7191 43.3789 47.6731 43.3047 47.6731H41.5899C41.5281 47.6731 41.4712 47.7054 41.4374 47.7582C41.4037 47.811 41.3979 47.8775 41.4226 47.9354L44.0653 54.2481L42.5977 57.7962C42.573 57.8541 42.5787 57.9206 42.6125 57.9734C42.6463 58.0262 42.7032 58.0577 42.765 58.0577H44.3446C44.4172 58.0577 44.4831 58.0134 44.5119 57.9444L48.7252 47.9362C48.75 47.8783 48.745 47.811 48.7112 47.7582C48.6774 47.7054 48.6198 47.6731 48.5588 47.6731Z" fill="#2E7CC2"/>
<path d="M57.5101 47.6731H55.1623C55.0799 47.6731 55.0072 47.7242 54.98 47.7991L54.4982 49.1475C54.1662 50.0963 53.8753 50.9822 53.6309 51.7879C53.4049 51.0435 53.1141 50.1577 52.761 49.1466L52.2792 47.7991C52.2529 47.7242 52.1793 47.6731 52.097 47.6731H49.7491C49.6423 47.6731 49.5555 47.7574 49.5555 47.8613V54.6251C49.5555 54.729 49.6423 54.8125 49.7491 54.8125H51.3865C51.4934 54.8125 51.5792 54.729 51.5792 54.6251V52.1959C51.5792 51.8211 51.5705 51.391 51.5512 50.9063C51.602 51.052 51.6546 51.2028 51.7098 51.3595C51.9226 51.9668 52.1776 52.6763 52.4745 53.4863L52.9126 54.6873C52.9397 54.7622 53.0133 54.8125 53.0948 54.8125H54.1644C54.2468 54.8125 54.3195 54.7622 54.3467 54.6873L54.7777 53.494C55.0747 52.6746 55.3322 51.9583 55.5504 51.3459C55.6064 51.1883 55.6599 51.0375 55.7107 50.8919C55.6905 51.4063 55.68 51.8424 55.68 52.1959V54.6251C55.68 54.729 55.7667 54.8125 55.8736 54.8125H57.5101C57.617 54.8125 57.7037 54.729 57.7037 54.6251V47.8613C57.7037 47.7574 57.617 47.6731 57.5101 47.6731Z" fill="#2E7CC2"/>
<path d="M65.6072 52.6057C65.2993 52.712 64.9653 52.7938 64.6144 52.85C63.7768 52.9818 62.9494 52.9634 62.3252 52.7261C61.9684 52.5899 61.663 52.3868 61.4167 52.1214C61.1696 51.8551 60.9773 51.5168 60.844 51.116C60.7082 50.71 60.6399 50.2284 60.6399 49.6852C60.6399 49.1395 60.715 48.6499 60.8634 48.229C61.0102 47.8133 61.216 47.4591 61.4766 47.1761C61.7347 46.8957 62.0494 46.6786 62.4121 46.531C63.0261 46.2814 63.7743 46.2629 64.5259 46.3772C64.8312 46.4238 65.1686 46.5055 65.5271 46.6224C65.5836 46.64 65.6452 46.6303 65.6933 46.5934C65.7405 46.5565 65.7692 46.4985 65.7692 46.437V44.9394C65.7692 44.8568 65.7186 44.7829 65.6435 44.7557C65.3533 44.652 65.0235 44.5703 64.6633 44.5131C64.304 44.4569 63.9202 44.4279 63.5221 44.4279C62.7343 44.4332 62.019 44.5738 61.3948 44.8471C60.7656 45.1204 60.2342 45.5027 59.8149 45.9826C59.3966 46.4598 59.0727 47.0319 58.8508 47.6832C58.6307 48.33 58.5185 49.0401 58.5185 49.7933C58.5185 50.5281 58.6231 51.2101 58.8297 51.8209C59.0389 52.4378 59.3552 52.9757 59.7711 53.4186C60.1878 53.8625 60.7116 54.2096 61.3282 54.4504C61.9397 54.6912 62.6575 54.8125 63.4605 54.8125C63.8705 54.8125 64.2694 54.7844 64.6482 54.7281C65.0311 54.671 65.3913 54.5937 65.7169 54.4961C65.797 54.4724 65.8518 54.3959 65.8518 54.3098V52.7902C65.8518 52.7278 65.8232 52.669 65.7751 52.6329C65.7261 52.596 65.6637 52.5863 65.6072 52.6057Z" fill="#2E7CC2"/>
<path d="M71.3033 48.8589C71.4353 48.9272 71.5427 49.0168 71.6304 49.1321C71.719 49.2491 71.788 49.3901 71.8348 49.5506C71.8655 49.657 71.8868 49.7705 71.8978 49.8867H69.6569C69.6807 49.7758 69.7114 49.6685 69.7506 49.5657C69.8119 49.4034 69.8954 49.2606 69.9984 49.1409C70.1006 49.0221 70.219 48.9308 70.3604 48.8607C70.633 48.7277 71.0452 48.7268 71.3033 48.8589ZM73.115 47.9279C72.8322 47.6157 72.4932 47.3843 72.1065 47.2389C71.3664 46.9587 70.4286 46.9347 69.6007 47.2735C69.1935 47.4402 68.8281 47.6938 68.513 48.0272C68.1978 48.3597 67.9448 48.7836 67.7591 49.2855C67.5752 49.7847 67.4815 50.3735 67.4815 51.0341C67.4815 51.708 67.582 52.2915 67.7796 52.7686C67.9789 53.2492 68.2532 53.6473 68.5947 53.9515C68.9354 54.2556 69.3383 54.4773 69.7923 54.6121C70.2378 54.7451 70.7139 54.8125 71.2088 54.8125C71.6926 54.8125 72.167 54.7673 72.6193 54.6786C73.0801 54.5873 73.4148 54.4933 73.6431 54.3895C73.7112 54.3585 73.7564 54.2884 73.7564 54.2104V52.8368C73.7564 52.7739 73.7266 52.7145 73.6772 52.6772C73.6286 52.6409 73.5647 52.6311 73.5077 52.6515C73.1585 52.7739 72.8101 52.8697 72.4728 52.9353C71.8357 53.0585 71.2233 53.0701 70.7309 52.9406C70.5044 52.8821 70.3042 52.7872 70.1356 52.6595C69.972 52.5362 69.8374 52.3713 69.7344 52.1682C69.6569 52.0131 69.6015 51.8304 69.57 51.6229H73.7913C73.891 51.6229 73.9736 51.5422 73.9787 51.4385C73.9881 51.2664 73.9957 51.0589 74 50.8098C74 50.166 73.9233 49.5985 73.7709 49.1232C73.6167 48.6408 73.3961 48.2382 73.115 47.9279Z" fill="#2E7CC2"/>
<path d="M79.3248 51.3189C79.3248 51.6366 79.2928 51.9275 79.2297 52.184C79.1673 52.4346 79.0779 52.6526 78.9615 52.8311C78.8499 53.0038 78.7138 53.1337 78.5448 53.2276C78.2775 53.3777 77.9027 53.4045 77.5828 53.3123C77.4549 53.2746 77.3376 53.2259 77.2318 53.1681C77.1285 53.1119 77.0317 53.0465 76.9447 52.9753C76.8799 52.9208 76.8209 52.8672 76.77 52.8127V49.9869C76.9365 49.8008 77.1276 49.6482 77.3384 49.5351C77.5631 49.4144 77.8018 49.3506 78.0487 49.3465C78.2389 49.3473 78.412 49.3867 78.5645 49.4646C78.7171 49.5426 78.8499 49.66 78.9598 49.8142C79.0738 49.9735 79.1632 50.1788 79.2264 50.4245C79.292 50.6785 79.3248 50.9802 79.3248 51.3189ZM80.409 48.5526C80.1285 48.255 79.7997 48.0312 79.4331 47.8862C78.6498 47.5786 77.7805 47.6071 77.1613 47.9516C76.9538 48.0664 76.7684 48.2031 76.606 48.3598L76.574 48.0044C76.5658 47.9097 76.4879 47.8367 76.3936 47.8367H74.9961C74.896 47.8367 74.8148 47.9197 74.8148 48.022V57.8724C74.8148 57.9747 74.896 58.0577 74.9961 58.0577H76.5888C76.6889 58.0577 76.77 57.9747 76.77 57.8724V55.1036C76.77 54.905 76.7676 54.7231 76.7635 54.5537C76.9029 54.6543 77.0596 54.744 77.2302 54.8228C77.8477 55.1062 78.6572 55.1062 79.3699 54.8077C79.7308 54.656 80.0621 54.4213 80.3557 54.1086C80.6485 53.7976 80.8872 53.4003 81.066 52.9275C81.2439 52.4572 81.3333 51.8948 81.3333 51.2569C81.3333 50.6508 81.2497 50.1185 81.0832 49.6725C80.9159 49.2249 80.6887 48.8477 80.409 48.5526Z" fill="#2E7CC2"/>
<path d="M86.4851 50.0742C86.4471 50.1491 86.3885 50.2088 86.3046 50.2573C86.2365 50.2982 86.0971 50.3459 85.8176 50.3459H84.8246V49.3263H85.8247C86.1209 49.3263 86.261 49.3706 86.3275 49.4098C86.478 49.4941 86.5453 49.6168 86.5453 49.8084C86.5453 49.9064 86.5247 49.9958 86.4851 50.0742ZM85.7534 53.1592H84.8246V51.9991H85.9538C86.0733 51.9991 86.1723 52.0068 86.2476 52.0204C86.3212 52.0349 86.3869 52.0554 86.44 52.0809C86.5358 52.1269 86.6055 52.1882 86.6538 52.2692C86.7029 52.3509 86.7266 52.4429 86.7266 52.5511C86.7266 52.6771 86.7005 52.7811 86.6459 52.8688C86.592 52.9557 86.5065 53.023 86.3814 53.0758C86.322 53.1013 86.242 53.1218 86.1446 53.1362C86.0417 53.1516 85.9102 53.1592 85.7534 53.1592ZM87.7782 51.0631C87.9492 50.943 88.0926 50.7956 88.2058 50.6219C88.3911 50.3391 88.4845 50.0069 88.4845 49.6338C88.4845 49.2139 88.3634 48.8408 88.1242 48.524C87.8883 48.2114 87.5438 47.9789 87.1035 47.8349C86.9444 47.7812 86.7623 47.7395 86.5635 47.7123C86.3711 47.6859 86.1502 47.6731 85.9086 47.6731H83.138C83.0413 47.6731 82.963 47.7574 82.963 47.8613V54.6243C82.963 54.729 83.0413 54.8125 83.138 54.8125H85.5974C85.9292 54.8125 86.2198 54.7972 86.459 54.7657C86.6989 54.7341 86.9159 54.6864 87.1043 54.6226C87.6119 54.4488 88.0023 54.1771 88.266 53.8159C88.5312 53.4505 88.6667 53.023 88.6667 52.5443C88.6667 52.138 88.5582 51.7913 88.3436 51.5136C88.201 51.3288 88.0118 51.1781 87.7782 51.0631Z" fill="#2E7CC2"/>
<path d="M96.6298 47.6731H95.1343C95.0757 47.6731 95.0204 47.7012 94.9853 47.7489L93.2001 50.1934C92.8242 50.7198 92.511 51.1772 92.264 51.5613C92.2832 51.0554 92.2925 50.4737 92.2925 49.8221V47.8613C92.2925 47.7574 92.2104 47.6731 92.1083 47.6731H90.4813C90.3792 47.6731 90.2963 47.7574 90.2963 47.8613V54.6251C90.2963 54.729 90.3792 54.8125 90.4813 54.8125H91.9776C92.0362 54.8125 92.0907 54.7844 92.1258 54.7367L93.911 52.293C94.2844 51.7726 94.5984 51.3135 94.8488 50.9217C94.8287 51.4608 94.8186 52.0443 94.8186 52.6627V54.6251C94.8186 54.729 94.9015 54.8125 95.0037 54.8125H96.6298C96.7319 54.8125 96.8148 54.729 96.8148 54.6251V47.8613C96.8148 47.7574 96.7319 47.6731 96.6298 47.6731Z" fill="#2E7CC2"/>
<path d="M103.249 52.7167C103.196 52.6804 103.129 52.6724 103.069 52.6981C102.859 52.7859 102.628 52.8613 102.385 52.9216C102.15 52.981 101.884 53.0112 101.591 53.0112C101.275 53.0112 100.999 52.9571 100.771 52.8498C100.544 52.7442 100.356 52.6032 100.21 52.4312C100.065 52.2591 99.9516 52.0462 99.8752 51.7988C99.7962 51.5451 99.7554 51.2711 99.7554 50.9829C99.7554 50.5811 99.8075 50.237 99.9108 49.9576C100.011 49.6844 100.147 49.4636 100.315 49.3004C100.484 49.1363 100.68 49.0148 100.898 48.9403C101.358 48.7833 101.889 48.7993 102.327 48.9013C102.549 48.9536 102.761 49.0255 102.959 49.1124C103.019 49.1381 103.087 49.1319 103.141 49.0964C103.194 49.06 103.227 48.9988 103.227 48.9323V47.5301C103.227 47.4503 103.18 47.3785 103.108 47.3483C102.867 47.2481 102.594 47.1674 102.296 47.1089C101.606 46.9732 100.823 46.9874 100.055 47.2463C99.6078 47.3971 99.1999 47.6348 98.844 47.9532C98.4864 48.2734 98.1904 48.6929 97.9664 49.2011C97.7433 49.7093 97.6296 50.323 97.6296 51.0263C97.6296 51.6551 97.7277 52.2148 97.9222 52.6893C98.1166 53.1673 98.39 53.5691 98.732 53.8821C99.0723 54.1952 99.475 54.4311 99.9307 54.5846C100.379 54.7353 100.869 54.8125 101.385 54.8125C101.741 54.8125 102.082 54.7779 102.398 54.7096C102.718 54.6422 102.993 54.5588 103.217 54.4622C103.287 54.4311 103.333 54.3602 103.333 54.2821V52.8791C103.333 52.8143 103.302 52.7531 103.249 52.7167Z" fill="#2E7CC2"/>
<path d="M16.7722 45.0769H15.1344C15.0878 45.0769 15.0429 45.0942 15.0084 45.1253C14.8814 45.2367 14.7632 45.3576 14.644 45.4777L14.5525 45.5719C14.0276 46.1005 13.5018 46.6283 12.9752 47.156L12.0212 48.1139L12.0229 47.4419C12.0255 46.8442 12.029 46.2473 12.016 45.6505C12.0117 45.4846 11.9789 45.33 11.9167 45.1901C11.8857 45.121 11.8175 45.0769 11.7423 45.0769H10.1763C10.1279 45.0769 10.0606 45.1149 10.0252 45.1478L8.4021 46.7665C7.8556 47.3132 1.99268 53.2093 0.721847 54.4877C0.667457 54.5421 0.651916 54.6242 0.681269 54.6959C0.710623 54.7667 0.77969 54.8125 0.85739 54.8125H3.38006C3.43014 54.8125 3.47848 54.7926 3.51474 54.7572C5.63855 52.6367 7.76409 50.517 9.89049 48.3981L9.89135 54.6225C9.89135 54.7279 9.97682 54.8125 10.0822 54.8125H11.8304C11.9357 54.8125 12.0203 54.7279 12.0203 54.6225V51.2969C12.0203 51.2175 12.0281 51.2071 12.0428 51.1916C12.6868 50.5498 13.3292 49.908 13.9715 49.2654L14.8435 48.3938V54.6225C14.8435 54.7279 14.9289 54.8125 15.0343 54.8125H16.7722C16.8775 54.8125 16.963 54.7279 16.963 54.6225V45.2678C16.963 45.1624 16.8775 45.0769 16.7722 45.0769Z" fill="#C02B8A"/>
</svg>
