<?xml version="1.0" encoding="utf-8"?><svg viewBox="0 0 38 25" xmlns="http://www.w3.org/2000/svg" xmlns:xlink="http://www.w3.org/1999/xlink"><style>:root>svg{display:none}:root>svg:target{display:block}</style><svg viewBox="0 0 38 25" id="arr-l" xmlns="http://www.w3.org/2000/svg"><path fill-rule="evenodd" clip-rule="evenodd" d="M14.144.732c.967.977.967 2.56 0 3.536L8.46 10h27.06A2.49 2.49 0 0138 12.5c0 1.38-1.11 2.5-2.478 2.5H8.462l5.682 5.732c.967.977.967 2.56 0 3.536a2.463 2.463 0 01-3.505 0l-9.913-10a2.516 2.516 0 010-3.536l9.913-10a2.463 2.463 0 013.505 0z"/></svg><svg viewBox="0 0 38 25" id="arr-r" xmlns="http://www.w3.org/2000/svg"><path fill-rule="evenodd" clip-rule="evenodd" d="M23.856.732a2.516 2.516 0 000 3.536L29.54 10H2.479A2.49 2.49 0 000 12.5C0 13.88 1.11 15 2.478 15h27.06l-5.682 5.732a2.516 2.516 0 000 3.536 2.463 2.463 0 003.505 0l9.913-10a2.515 2.515 0 000-3.536l-9.913-10a2.463 2.463 0 00-3.505 0z"/></svg></svg>