<svg width="27" height="27" viewBox="0 0 27 27" fill="none" xmlns="http://www.w3.org/2000/svg">
<path opacity="0.7" d="M11.2923 5.98069L12.0224 7.28899C12.6813 8.46965 12.4168 10.0185 11.3791 11.0563C11.379 11.0563 11.379 11.0563 11.379 11.0563C11.3789 11.0564 10.1204 12.3152 12.4026 14.5974C14.6841 16.879 15.9429 15.6218 15.9437 15.621C15.9437 15.6209 15.9437 15.6209 15.9438 15.6209C16.9815 14.5832 18.5304 14.3187 19.711 14.9776L21.0193 15.7077C22.8021 16.7027 23.0127 19.2029 21.4456 20.77C20.504 21.7116 19.3505 22.4443 18.0753 22.4926C15.9286 22.574 12.2831 22.0307 8.62617 18.3738C4.96927 14.7169 4.42599 11.0714 4.50737 8.92472C4.55571 7.64955 5.2884 6.49601 6.23003 5.55439C7.7971 3.98732 10.2973 4.19787 11.2923 5.98069Z" fill="#2E7CC2"/>
<path d="M14.9169 2.11508C14.9914 1.65508 15.4263 1.34304 15.8863 1.41751C15.9147 1.42296 16.0063 1.44008 16.0543 1.45077C16.1503 1.47215 16.2842 1.50507 16.4512 1.5537C16.7851 1.65094 17.2515 1.81115 17.8113 2.0678C18.9321 2.58165 20.4237 3.48053 21.9715 5.02831C23.5192 6.57608 24.4181 8.06762 24.932 9.18844C25.1886 9.74825 25.3488 10.2147 25.4461 10.5486C25.4947 10.7155 25.5276 10.8494 25.549 10.9454C25.5597 10.9934 25.5675 11.032 25.5729 11.0604L25.5794 11.0955C25.6539 11.5555 25.3447 12.0084 24.8847 12.0828C24.426 12.1571 23.9939 11.8466 23.9176 11.3887C23.9152 11.3764 23.9088 11.3434 23.9018 11.3122C23.888 11.2499 23.8639 11.1511 23.8259 11.0205C23.7498 10.7591 23.6175 10.3706 23.398 9.8917C22.9594 8.93511 22.1708 7.61415 20.7782 6.22155C19.3856 4.82896 18.0647 4.04034 17.1081 3.60178C16.6292 3.38223 16.2407 3.25 15.9793 3.17387C15.8486 3.13581 15.6844 3.09811 15.6221 3.08423C15.1642 3.00793 14.8427 2.57377 14.9169 2.11508Z" fill="#C02B8A"/>
<path fill-rule="evenodd" clip-rule="evenodd" d="M15.1715 5.99573C15.2995 5.54767 15.7665 5.28823 16.2145 5.41624L15.9827 6.22753C16.2145 5.41624 16.2145 5.41624 16.2145 5.41624L16.2162 5.41671L16.2179 5.41721L16.2216 5.4183L16.2304 5.4209L16.2526 5.42784C16.2696 5.43326 16.2908 5.44033 16.316 5.44929C16.3665 5.46722 16.4333 5.49272 16.5152 5.52782C16.6791 5.59806 16.9031 5.70653 17.1781 5.86933C17.7288 6.19523 18.4805 6.73655 19.3636 7.61965C20.2467 8.50274 20.788 9.25445 21.1139 9.8051C21.2767 10.0802 21.3852 10.3041 21.4554 10.468C21.4905 10.5499 21.516 10.6167 21.5339 10.6672C21.5429 10.6925 21.55 10.7137 21.5554 10.7306L21.5623 10.7529L21.5649 10.7616L21.566 10.7654L21.5665 10.7671C21.5665 10.7671 21.567 10.7687 20.7557 11.0005L21.567 10.7687C21.695 11.2168 21.4356 11.6838 20.9875 11.8118C20.5432 11.9387 20.0804 11.6847 19.9478 11.2437L19.9436 11.2315C19.9376 11.2146 19.9252 11.1814 19.9044 11.1328C19.8627 11.0356 19.7872 10.8767 19.6617 10.6646C19.4108 10.2407 18.9578 9.60034 18.1704 8.81289C17.3829 8.02544 16.7425 7.5724 16.3187 7.32156C16.1065 7.19599 15.9476 7.1205 15.8505 7.07888C15.8019 7.05805 15.7686 7.04564 15.7517 7.03964L15.7396 7.03548C15.2985 6.90287 15.0445 6.43999 15.1715 5.99573Z" fill="#C02B8A"/>
</svg>
